<svg width="171" height="171" viewBox="0 0 171 171" fill="none" xmlns="http://www.w3.org/2000/svg" class="badge">
<g class="animation--rotate">
  <path d="M85.5 169.5C102.114 169.5 118.354 164.573 132.168 155.343C145.982 146.113 156.748 132.994 163.106 117.645C169.464 102.296 171.127 85.4068 167.886 69.1124C164.645 52.818 156.645 37.8506 144.897 26.103C133.149 14.3554 118.182 6.35517 101.888 3.11402C85.5932 -0.127143 68.7036 1.53633 53.3546 7.89409C38.0056 14.2519 24.8866 25.0183 15.6566 38.8321C6.42652 52.6458 1.5 68.8864 1.5 85.5C1.5 107.778 10.35 129.144 26.103 144.897C41.8561 160.65 63.2218 169.5 85.5 169.5Z" fill="white" stroke="black" stroke-width="3"></path>
  <path d="M86.8502 18.18V16.29C86.5236 16.939 86.0357 17.4932 85.4333 17.8995C84.8309 18.3058 84.1343 18.5504 83.4102 18.61L83.4901 15.37C84.3014 15.3829 85.0975 15.1488 85.7726 14.6987C86.4477 14.2486 86.97 13.6038 87.2701 12.85L90.0702 12.92L89.7602 25.37L86.6302 25.3L86.8502 18.18Z" fill="#231F20"></path>
  <path d="M92.5505 19.3C93.3105 15.3 95.9505 13.24 99.0805 13.83C102.211 14.42 104.001 17.25 103.231 21.31C102.461 25.37 99.8305 27.26 96.6605 26.66C93.4905 26.06 91.7805 23.3 92.5505 19.3ZM99.8705 20.62C100.401 17.79 99.7305 16.62 98.5905 16.42C97.4505 16.22 96.4405 17.06 95.9105 19.88C95.3805 22.7 96.0505 23.88 97.1505 24.07C98.2505 24.26 99.3205 23.47 99.8705 20.58V20.62Z" fill="#231F20"></path>
  <path d="M105.21 21.85C106.74 18.04 109.731 16.57 112.681 17.76C115.631 18.95 116.831 22.08 115.291 25.91C113.751 29.74 110.801 31.08 107.811 29.91C104.821 28.74 103.66 25.7 105.21 21.85ZM112.131 24.58C113.201 21.9 112.771 20.64 111.701 20.2C110.631 19.76 109.461 20.42 108.401 23.08C107.341 25.74 107.751 27.02 108.791 27.44C109.831 27.86 111.031 27.3 112.131 24.58Z" fill="#231F20"></path>
  <path d="M129.77 27.76L131.77 29.13L117.23 34.13L115.23 32.74L129.77 27.76ZM118.71 24.42C120 22.56 121.87 22.06 123.45 23.16C125.03 24.26 125.23 26.16 123.95 28.05C122.67 29.94 120.82 30.36 119.21 29.24C117.6 28.12 117.44 26.24 118.71 24.42ZM122.03 26.69C122.79 25.59 122.89 24.9 122.45 24.59C122.01 24.28 121.45 24.64 120.66 25.73C119.87 26.82 119.8 27.5 120.22 27.79C120.64 28.08 121.27 27.78 122.03 26.69ZM122.89 33.89C124.19 32.03 126.05 31.53 127.63 32.63C129.21 33.73 129.41 35.63 128.12 37.53C126.83 39.43 125 39.83 123.4 38.71C121.8 37.59 121.61 35.73 122.89 33.89ZM126.2 36.17C126.97 35.08 127.06 34.38 126.62 34.08C126.18 33.78 125.62 34.08 124.83 35.22C124.04 36.36 123.98 36.97 124.4 37.22C124.82 37.47 125.44 37.3 126.2 36.17Z" fill="#231F20"></path>
  <path d="M135.2 40.96C138.12 38.83 141.89 38.96 144.55 42.61C147.21 46.26 146.17 49.9 143.25 52.02C140.33 54.14 136.67 54.02 133.98 50.29C131.29 46.56 132.28 43.08 135.2 40.96ZM141.2 49.13C143.03 47.81 143.66 45.92 142.41 44.21C141.16 42.5 139.17 42.5 137.34 43.83C135.51 45.16 134.95 47.02 136.2 48.73C137.45 50.44 139.36 50.45 141.17 49.13H141.2Z" fill="#231F20"></path>
  <path d="M150.079 51.85L154.079 60.78L151.629 61.87L148.999 55.99L146.499 57.12L148.619 61.88L146.249 62.94L144.129 58.18L140.129 59.97L138.779 56.97L150.079 51.85Z" fill="#231F20"></path>
  <path d="M156.58 69.56L157.49 75.43C157.89 78.04 156.65 80.25 154.08 80.64C151.51 81.03 149.66 79.31 149.26 76.72L148.86 74.12L144.77 74.75L144.27 71.46L156.58 69.56ZM151.7 75.72C151.87 76.82 152.58 77.45 153.54 77.3C154.5 77.15 154.96 76.35 154.79 75.24L154.49 73.24L151.39 73.72L151.7 75.72Z" fill="#231F20"></path>
  <path d="M158.331 83.56L158.041 90.03C157.911 92.8 156.501 94.41 154.441 94.32C153.573 94.2745 152.755 93.9013 152.151 93.2757C151.548 92.6502 151.205 91.8189 151.191 90.95C150.941 92.65 150.191 93.48 148.281 93.79L145.381 94.24L145.541 90.69L148.421 90.34C149.691 90.2 150.181 89.73 150.241 88.45L150.331 86.53L145.741 86.32L145.891 82.99L158.331 83.56ZM152.611 89.11C152.611 90.11 153.031 90.82 153.981 90.86C154.931 90.9 155.411 90.23 155.461 89.24L155.571 86.76L152.721 86.63L152.611 89.11Z" fill="#231F20"></path>
  <path d="M151.36 96.35C154.85 97.3 157.11 100.35 155.93 104.67C154.75 108.99 151.26 110.51 147.77 109.56C144.28 108.61 142.12 105.66 143.32 101.25C144.52 96.84 147.88 95.4 151.36 96.35ZM148.72 106.13C150.91 106.72 152.72 106.03 153.33 103.99C153.94 101.95 152.63 100.38 150.45 99.79C148.27 99.2 146.45 99.92 145.91 101.97C145.37 104.02 146.56 105.54 148.72 106.13Z" fill="#231F20"></path>
  <path d="M152.17 114.78L147.7 123.47L145.31 122.24L148.26 116.51L145.79 115.24L143.41 119.88L141.1 118.69L143.48 114.05L139.58 112.05L141.1 109.05L152.17 114.78Z" fill="#231F20"></path>
  <path d="M145.9 125.94L143.95 128.71L133.77 121.53L135.77 118.77L145.9 125.94Z" fill="#231F20"></path>
  <path d="M137.761 132.3L140.501 129.3L142.371 131.05L134.531 139.39L132.661 137.64L135.431 134.69L128.221 127.91L130.531 125.45L137.761 132.3Z" fill="#231F20"></path>
  <path d="M127.769 133.59L125.609 136.22C125.164 135.76 124.562 135.484 123.923 135.446C123.284 135.409 122.654 135.614 122.159 136.02C120.949 136.9 120.829 137.72 121.279 138.34C121.729 138.96 122.279 138.99 123.409 138.4L124.779 137.64C127.199 136.31 129.029 136.37 130.399 138.26C131.769 140.15 131.139 142.54 128.399 144.51C125.659 146.48 123.399 146.28 121.889 145.02L124.049 142.41C124.462 142.753 124.982 142.941 125.519 142.941C126.056 142.941 126.576 142.753 126.989 142.41C128.039 141.65 128.079 140.87 127.689 140.32C127.299 139.77 126.689 139.78 125.809 140.23L124.429 140.99C121.999 142.35 119.809 142.33 118.429 140.51C117.049 138.69 117.569 136.15 120.619 133.93C123.669 131.71 126.139 132.11 127.769 133.59Z" fill="#231F20"></path>
  <path d="M115.34 151.92L106.2 155.37L105.25 152.86L111.25 150.58L110.25 147.99L105.37 149.83L104.5 147.4L109.38 145.56L107.83 141.44L110.94 140.27L115.34 151.92Z" fill="#231F20"></path>
  <path d="M101.63 149.04L102.79 156.33L99.4704 156.86L98.3703 149.99C98.0603 147.99 97.1203 147.14 95.4903 147.41C93.8603 147.68 93.2503 148.84 93.5603 150.76L94.6503 157.63L91.3303 158.16L90.1704 150.87C89.6104 147.39 91.5303 145.21 95.0503 144.65C98.5703 144.09 101.08 145.61 101.63 149.04Z" fill="#231F20"></path>
  <path d="M86.73 158.42L82.29 158.12L78.01 150.46L77.8 153.64L77.5 157.8L74.25 157.58L75.09 145.15L78.43 145.37L83.69 154.85L83.95 151.12L84.31 145.77L87.56 145.99L86.73 158.42Z" fill="#231F20"></path>
  <path d="M69.5791 156.64L64.7491 155.16C61.0991 154.05 59.0091 151.03 60.1391 147.32C61.2691 143.61 64.7491 142.14 68.2891 143.22L73.2191 144.72L69.5791 156.64ZM67.7391 145.84C65.6091 145.19 64.1691 146.07 63.4891 148.3C62.8691 150.3 63.4891 152.02 65.5891 152.65L67.1591 153.12L69.2391 146.3L67.7391 145.84Z" fill="#231F20"></path>
  <path d="M49.3697 148.78L43.9897 145.17C41.6897 143.62 41.0397 141.58 42.1997 139.86C42.6903 139.142 43.4366 138.639 44.2861 138.453C45.1356 138.267 46.024 138.413 46.7696 138.86C46.1368 138.435 45.6894 137.785 45.5186 137.042C45.3477 136.299 45.4661 135.519 45.8497 134.86L46.9697 132.14L49.9697 134.14L48.7696 136.79C48.6209 136.992 48.5194 137.225 48.4726 137.472C48.4257 137.719 48.4348 137.973 48.4991 138.215C48.5634 138.458 48.6812 138.683 48.844 138.874C49.0068 139.066 49.2103 139.218 49.4397 139.32L51.0397 140.4L53.5997 136.59L56.3596 138.44L49.3697 148.78ZM47.5997 141.01C47.4446 140.867 47.2605 140.759 47.06 140.693C46.8595 140.628 46.6472 140.606 46.4375 140.63C46.2278 140.653 46.0257 140.722 45.8449 140.831C45.6641 140.939 45.5089 141.086 45.3897 141.26C44.8697 142.05 45.1897 142.82 46.0097 143.37L48.0697 144.75L49.6597 142.39L47.5997 141.01Z" fill="#231F20"></path>
  <path d="M37.2004 139.99L30.4004 133.15L32.2804 131.28L36.7604 135.79L38.3304 134.23L34.8604 130.75L36.6104 129L40.0804 132.49L41.8304 130.74L37.3504 126.23L39.2304 124.36L46.0404 131.2L37.2004 139.99Z" fill="#231F20"></path>
  <path d="M28.01 130.19L22.5 122.12L24.72 120.6L28.36 125.92L30.65 124.35L27.71 120.05L29.85 118.58L32.8 122.88L36.43 120.4L38.31 123.15L28.01 130.19Z" fill="#231F20"></path>
  <path d="M26.8203 117.3C23.4903 118.69 19.8203 117.7 18.1103 113.53C16.4003 109.36 18.2203 106.05 21.5603 104.66C24.9003 103.27 28.4103 104.27 30.1803 108.5C31.9503 112.73 30.1603 115.94 26.8203 117.3ZM22.9103 107.96C20.8203 108.83 19.7703 110.52 20.5903 112.47C21.4103 114.42 23.3503 114.89 25.4403 114.02C27.5303 113.15 28.5003 111.47 27.6903 109.52C26.8803 107.57 24.9803 107.12 22.9103 107.99V107.96Z" fill="#231F20"></path>
  <path d="M14.7905 103.14L13.7005 96.76C13.2205 94.02 14.2505 92.15 16.2905 91.76C17.1471 91.6127 18.0276 91.799 18.751 92.2807C19.4745 92.7624 19.986 93.5029 20.1805 94.35C20.0574 93.6068 20.2185 92.8445 20.6316 92.2146C21.0448 91.5847 21.6798 91.1332 22.4105 90.95L25.1605 89.89L25.7605 93.39L23.0205 94.39C22.7719 94.4249 22.5341 94.5144 22.3242 94.6522C22.1144 94.7899 21.9376 94.9724 21.8066 95.1865C21.6756 95.4007 21.5937 95.6412 21.5667 95.8908C21.5397 96.1404 21.5683 96.3928 21.6505 96.63L21.9805 98.53L26.5005 97.75L27.0705 101.02L14.7905 103.14ZM19.1905 96.5C19.0305 95.5 18.4105 94.92 17.4905 95.08C16.5705 95.24 16.2205 96 16.3905 96.98L16.8105 99.42L19.6105 98.93L19.1905 96.5Z" fill="#231F20"></path>
  <path d="M12.7402 88.3L12.9702 78.66L15.6202 78.72L15.4702 85.07L17.6802 85.12L17.7902 80.21L20.2702 80.27L20.1502 85.18L22.6202 85.24L22.7702 78.89L25.4302 78.95L25.1902 88.6L12.7402 88.3Z" fill="#231F20"></path>
  <path d="M21.9595 77.55L21.8295 74.15C22.4673 74.1982 23.0999 74.0049 23.6019 73.6085C24.1038 73.2121 24.4385 72.6416 24.5395 72.01C24.8595 70.55 24.4195 69.85 23.6695 69.69C22.9195 69.53 22.4595 69.9 22.0395 71.06L21.5095 72.53C20.5795 75.13 19.1695 76.3 16.8995 75.8C14.7995 75.34 13.4995 73.09 14.2195 69.8C14.9395 66.51 16.7595 65.18 18.7495 65.11L18.8595 68.49C18.3252 68.5009 17.8114 68.6974 17.4063 69.046C17.0011 69.3945 16.73 69.8733 16.6395 70.4C16.3595 71.67 16.8395 72.29 17.5095 72.4C18.1795 72.51 18.6395 72.12 18.9595 71.23L19.4895 69.74C20.4095 67.12 22.0595 65.68 24.2695 66.16C26.4795 66.64 27.7895 68.85 26.9895 72.54C26.2095 76.1 24.1595 77.58 21.9595 77.55Z" fill="#231F20"></path>
  <path d="M20.3795 59.41L18.7995 63.11L16.4395 62.11L20.9494 51.59L23.3094 52.59L21.7195 56.3L30.8094 60.2L29.4995 63.3L20.3795 59.41Z" fill="#231F20"></path>
  <path d="M34.2801 49.06L31.6901 52.98L33.3901 55.12L31.5001 57.99L23.5801 47.37L26.0301 43.66L38.9101 46.76L36.9101 49.76L34.2801 49.06ZM31.6901 48.33L29.6001 47.74C28.2501 47.36 27.6001 47.16 26.8501 46.93C27.3301 47.5 27.8501 48.08 28.6801 49.18L30.0101 50.87L31.6901 48.33Z" fill="#231F20"></path>
  <path d="M33.5006 38.42L30.7506 41.3L28.8906 39.53L36.7806 31.24L38.6406 33.01L35.8506 35.93L43.0206 42.76L40.6906 45.3L33.5006 38.42Z" fill="#231F20"></path>
  <path d="M39.0098 29.62L41.6598 27.52L49.3997 37.3L46.7498 39.4L39.0098 29.62Z" fill="#231F20"></path>
  <path d="M47.3792 30.71C45.6292 27.55 46.2192 23.83 50.1692 21.64C54.1192 19.45 57.5992 20.92 59.3492 24.08C61.0992 27.24 60.4992 30.85 56.4992 33.08C52.4992 35.31 49.1292 33.87 47.3792 30.71ZM56.2292 25.79C55.1392 23.79 53.3392 22.95 51.4892 23.98C49.6392 25.01 49.3892 26.98 50.4892 28.98C51.5892 30.98 53.3592 31.74 55.2092 30.71C57.0592 29.68 57.3192 27.75 56.2292 25.79Z" fill="#231F20"></path>
  <path d="M60.2402 17.05L64.5302 15.88L71.0902 21.7L70.2502 18.63L69.1502 14.63L72.2903 13.77L75.5802 25.77L72.3503 26.65L64.2702 19.44L65.2702 23.04L66.6802 28.21L63.5403 29.07L60.2402 17.05Z" fill="#231F20"></path>
</g>

<!-- <g class="highfive">
  <path class="sparks" d="M107.598 46.4583L103.493 57.7346" stroke="black" stroke-width="4" stroke-linecap="round"></path>
  <path class="sparks" d="M94.6797 46.868L96.7635 58.6857" stroke="black" stroke-width="4" stroke-linecap="round"></path>
  <path class="sparks" d="M117.232 55.0765L108.04 62.7899" stroke="black" stroke-width="4" stroke-linecap="round"></path>
  <path d="M141.197 87.8467L128.504 109.832C130.286 109.411 132.262 109.082 134.079 109.116C135.447 109.142 136.914 109.374 138.171 110.09C139.511 110.853 140.478 112.095 140.833 113.802L138.873 114.209L140.833 113.802C141.62 117.592 138.989 121.237 135.228 121.833C133.776 122.063 132.162 122.288 130.489 122.521L130.476 122.523L130.2 120.54L130.476 122.523C125.166 123.263 119.292 124.088 115.038 125.475C108.845 128.365 101.341 128.266 94.9263 124.562C84.5635 118.579 80.91 105.413 86.8448 95.1332L89.535 90.4737L89.5389 90.4669L89.5453 90.4558L99.2671 73.6171C100.728 71.0874 103.961 70.2735 106.467 71.7206C108.973 73.1676 109.885 76.3745 108.425 78.9042L104.644 85.4525C104.613 85.5061 104.615 85.6191 104.728 85.6841C104.84 85.7491 104.939 85.6945 104.97 85.6409L113.072 71.6088C114.532 69.0791 117.765 68.2652 120.272 69.7122C122.778 71.1593 123.69 74.3662 122.229 76.8959L114.128 90.9281C114.097 90.9816 114.099 91.0946 114.212 91.1595C114.324 91.2245 114.423 91.1699 114.454 91.1164L119.585 82.2293L124.716 73.3423C126.176 70.8126 129.41 69.9987 131.916 71.4457C134.422 72.8927 135.334 76.0996 133.873 78.6294L123.611 96.4035C123.581 96.457 123.583 96.57 123.695 96.6349C123.808 96.6999 123.907 96.6453 123.938 96.5918L132.039 82.5596C133.5 80.0299 136.733 79.216 139.239 80.663C141.745 82.1101 142.657 85.317 141.197 87.8467Z" fill="#C7B9FF" stroke="black" stroke-width="4.00371" stroke-linecap="square"></path>
</g> -->
</svg>