<svg width="171" height="171" viewBox="0 0 171 171" fill="none" xmlns="http://www.w3.org/2000/svg" class="badge">
<path class="hand" d="M59.3025 96.33C57.4814 95.8676 55.6113 95.6259 53.7325 95.61C52.3073 95.598 50.9015 95.9417 49.6425 96.61C48.9537 96.9961 48.3577 97.5282 47.8965 98.1692C47.4352 98.8101 47.1198 99.5442 46.9725 100.32L48.9725 100.72L46.9725 100.32C46.8004 101.215 46.8099 102.136 47.0006 103.027C47.1913 103.918 47.5593 104.762 48.0826 105.509C48.606 106.255 49.274 106.888 50.047 107.371C50.8201 107.854 51.6823 108.177 52.5825 108.32C54.0325 108.55 55.6425 108.77 57.3225 109.01L57.6025 107.01L57.3225 109.01C62.6325 109.75 68.5025 110.57 72.7625 111.96C76.9333 113.898 81.6107 114.465 86.1238 113.58C90.6369 112.696 94.7538 110.404 97.8842 107.035C101.015 103.666 102.998 99.3921 103.549 94.8263C104.1 90.2605 103.191 85.6374 100.953 81.62L98.2625 76.96L88.5425 60.12C87.8259 58.9357 86.6736 58.0794 85.3328 57.7349C83.9921 57.3905 82.5698 57.5853 81.371 58.2776C80.1723 58.9699 79.2927 60.1045 78.9209 61.4379C78.5492 62.7713 78.7149 64.1974 79.3825 65.41L83.1625 71.96C83.1804 72.0014 83.1822 72.048 83.1673 72.0906C83.1525 72.1332 83.1223 72.1687 83.0825 72.19C83.0495 72.2195 83.0068 72.2358 82.9625 72.2358C82.9183 72.2358 82.8755 72.2195 82.8425 72.19L74.7325 58.19C74.031 56.9766 72.8763 56.0916 71.5223 55.7297C70.1683 55.3677 68.7259 55.5585 67.5125 56.26C66.2992 56.9615 65.4142 58.1163 65.0522 59.4703C64.6903 60.8243 64.881 62.2666 65.5825 63.48L73.6825 77.48C73.701 77.5228 73.703 77.571 73.6883 77.6152C73.6735 77.6595 73.643 77.6968 73.6025 77.72C73.5828 77.7332 73.5608 77.7423 73.5375 77.7469C73.5143 77.7515 73.4904 77.7515 73.4671 77.7469C73.4439 77.7423 73.4218 77.7331 73.4022 77.7199C73.3825 77.7067 73.3656 77.6897 73.3525 77.67L63.0925 59.9C62.3759 58.7157 61.2236 57.8594 59.8829 57.5149C58.5421 57.1705 57.1197 57.3653 55.921 58.0576C54.7223 58.7499 53.8427 59.8845 53.4709 61.2179C53.0991 62.5513 53.2649 63.9774 53.9325 65.19L64.2025 82.96C64.2197 83.0026 64.2199 83.0501 64.2032 83.0929C64.1865 83.1356 64.154 83.1704 64.1125 83.19C64.0807 83.2218 64.0375 83.2396 63.9925 83.2396C63.9476 83.2396 63.9044 83.2218 63.8725 83.19L55.7725 69.19C55.0455 68.0298 53.8969 67.1967 52.5682 66.8659C51.2396 66.535 49.8345 66.7322 48.6482 67.416C47.462 68.0998 46.5871 69.2168 46.2074 70.5324C45.8278 71.8479 45.973 73.2594 46.6125 74.47L59.3025 96.33Z" fill="#FFC809" stroke="black" stroke-width="4" stroke-linecap="square"></path>
</svg>