<svg width="171" height="171" viewBox="0 0 171 171" fill="none" xmlns="http://www.w3.org/2000/svg" class="badge">
<g class="highfive">
  <path class="sparks" d="M107.598 46.4583L103.493 57.7346" stroke="black" stroke-width="4" stroke-linecap="round"></path>
  <path class="sparks" d="M94.6797 46.868L96.7635 58.6857" stroke="black" stroke-width="4" stroke-linecap="round"></path>
  <path class="sparks" d="M117.232 55.0765L108.04 62.7899" stroke="black" stroke-width="4" stroke-linecap="round"></path>
  <path d="M141.197 87.8467L128.504 109.832C130.286 109.411 132.262 109.082 134.079 109.116C135.447 109.142 136.914 109.374 138.171 110.09C139.511 110.853 140.478 112.095 140.833 113.802L138.873 114.209L140.833 113.802C141.62 117.592 138.989 121.237 135.228 121.833C133.776 122.063 132.162 122.288 130.489 122.521L130.476 122.523L130.2 120.54L130.476 122.523C125.166 123.263 119.292 124.088 115.038 125.475C108.845 128.365 101.341 128.266 94.9263 124.562C84.5635 118.579 80.91 105.413 86.8448 95.1332L89.535 90.4737L89.5389 90.4669L89.5453 90.4558L99.2671 73.6171C100.728 71.0874 103.961 70.2735 106.467 71.7206C108.973 73.1676 109.885 76.3745 108.425 78.9042L104.644 85.4525C104.613 85.5061 104.615 85.6191 104.728 85.6841C104.84 85.7491 104.939 85.6945 104.97 85.6409L113.072 71.6088C114.532 69.0791 117.765 68.2652 120.272 69.7122C122.778 71.1593 123.69 74.3662 122.229 76.8959L114.128 90.9281C114.097 90.9816 114.099 91.0946 114.212 91.1595C114.324 91.2245 114.423 91.1699 114.454 91.1164L119.585 82.2293L124.716 73.3423C126.176 70.8126 129.41 69.9987 131.916 71.4457C134.422 72.8927 135.334 76.0996 133.873 78.6294L123.611 96.4035C123.581 96.457 123.583 96.57 123.695 96.6349C123.808 96.6999 123.907 96.6453 123.938 96.5918L132.039 82.5596C133.5 80.0299 136.733 79.216 139.239 80.663C141.745 82.1101 142.657 85.317 141.197 87.8467Z" fill="#C7B9FF" stroke="black" stroke-width="4.00371" stroke-linecap="square"></path>
</g>
</svg>